HIERARCHY
ROOT hip
{
	OFFSET 0.000000 0.000000 0.000000 
	CHANNELS 6 Xposition Yposition Zposition Xrotation Zrotation Yrotation
	JOINT abdomen
	{
		OFFSET 0.000000 3.402643 0.000000 
		CHANNELS 3 Xrotation Zrotation Yrotation
		JOINT chest
		{
			OFFSET 0.000000 8.438565 -0.680529 
			CHANNELS 3 Xrotation Zrotation Yrotation
			JOINT neck
			{
				OFFSET 0.000000 10.207942 -0.272212 
				CHANNELS 3 Xrotation Zrotation Yrotation
				JOINT head
				{
					OFFSET 0.000000 3.130431 0.000000 
					CHANNELS 3 Xrotation Zrotation Yrotation
					End Site
					{
						OFFSET 0.000000 3.130435 0.000000 
					}
				}
			}
			JOINT lCollar
			{
				OFFSET 3.470700 6.669187 -0.816635 
				CHANNELS 3 Yrotation Zrotation Xrotation
				JOINT lShldr
				{
					OFFSET 3.198488 0.000000 0.000000 
					CHANNELS 3 Zrotation Yrotation Xrotation
					JOINT lForeArm
					{
						OFFSET 10.139888 0.000000 0.000000 
						CHANNELS 3 Yrotation Zrotation Xrotation
						JOINT lHand
						{
							OFFSET 8.370511 0.000000 0.000000 
							CHANNELS 3 Zrotation Yrotation Xrotation
							End Site
							{
								OFFSET 4.083176 0.000000 0.000000 
							}
						}
					}
				}
			}
			JOINT rCollar
			{
				OFFSET -3.470700 6.669187 -0.816635 
				CHANNELS 3 Yrotation Zrotation Xrotation
				JOINT rShldr
				{
					OFFSET -3.198488 0.000000 0.000000 
					CHANNELS 3 Zrotation Yrotation Xrotation
					JOINT rForeArm
					{
						OFFSET -10.139888 0.000000 0.000000 
						CHANNELS 3 Yrotation Zrotation Xrotation
						JOINT rHand
						{
							OFFSET -8.370511 0.000000 0.000000 
							CHANNELS 3 Zrotation Yrotation Xrotation
							End Site
							{
								OFFSET -4.083176 0.000000 0.000000 
							}
						}
					}
				}
			}
		}
	}
	JOINT lThigh
	{
		OFFSET 5.308129 -1.633274 1.361059 
		CHANNELS 3 Xrotation Zrotation Yrotation
		JOINT lShin
		{
			OFFSET -2.041588 -20.007561 0.000000 
			CHANNELS 3 Xrotation Zrotation Yrotation
			JOINT lFoot
			{
				OFFSET 0.000000 -19.190928 -1.224953 
				CHANNELS 3 Xrotation Yrotation Zrotation
				End Site
				{
					OFFSET 0.000000 -2.449906 4.627600 
				}
			}
		}
	}
	JOINT rThigh
	{
		OFFSET -5.308129 -1.633274 1.361059 
		CHANNELS 3 Xrotation Zrotation Yrotation
		JOINT rShin
		{
			OFFSET 2.041588 -20.007561 0.000000 
			CHANNELS 3 Xrotation Zrotation Yrotation
			JOINT rFoot
			{
				OFFSET 0.000000 -19.190928 -1.224953 
				CHANNELS 3 Xrotation Yrotation Zrotation
				End Site
				{
					OFFSET 0.000000 -2.449906 4.627600 
				}
			}
		}
	}
}
MOTION
Frames: 11
Frame Time: 0.033333
-5.297363 44.447735 -75.494446 4.746094 -5.283204 49.042969 23.271484 2.197266 0.664062 -16.259766 -0.205078 0.615234 -12.294923 -2.402344 -22.119141 5.263672 4.892578 -22.850727 -1.083984 6.582031 0.292969 -81.113281 -30.878906 52.919922 -78.925781 -2.568359 -19.149952 16.669922 3.027344 0.791533 -3.691406 0.791016 -0.136854 69.550781 28.935547 3.071132 85.761719 3.554688 -55.537716 -31.201176 3.212891 -1.982422 -21.419693 15.939878 14.143540 49.836868 -0.560263 -2.945688 -27.213366 10.287379 0.207325 -39.715332 -21.092722 -12.202452 43.164352 0.341621 2.511086 -2.139030 -2.484296 5.064520 
-5.239147 44.412518 -75.361649 4.384766 -5.458984 49.550777 22.929688 2.255860 0.498431 -16.611328 -0.205078 0.253871 -11.748047 -2.246094 -22.314837 5.439453 5.068359 -22.841492 -1.083984 6.757812 0.292969 -81.289063 -32.275394 52.533852 -79.560547 -2.480469 -20.576172 16.396486 0.087891 -0.048813 -4.404297 0.273437 -0.166016 69.404297 30.361328 3.276420 90.644531 3.554688 -52.393185 -29.931641 1.298828 -0.996094 -21.167551 16.010414 13.931787 49.821709 -0.441147 -3.056910 -27.260500 10.092795 0.113062 -39.498047 -21.061451 -12.394094 43.860733 0.351478 2.712224 -2.860187 -2.994008 4.473771 
-5.188757 44.354538 -75.139107 4.042969 -5.634766 50.264141 22.587891 2.363281 0.156250 -17.138672 -0.380859 0.058529 -11.396484 -1.542969 -22.383074 5.615235 4.892579 -22.831196 -1.083984 6.757812 0.292969 -81.191406 -34.277344 52.070309 -80.634766 -2.607422 -23.183594 14.277343 -2.529297 -0.781250 -5.283203 -0.097656 -0.019515 68.916016 32.626953 4.492188 94.951172 3.496094 -48.848251 -24.833984 2.041016 -1.191057 -21.218168 16.608236 13.360317 50.006477 -0.423595 -3.077797 -27.587742 9.602571 -0.043594 -39.371521 -21.266790 -12.726800 44.751736 0.332010 2.407223 -3.640388 -2.995217 5.035417 
-5.157575 44.244633 -74.802399 3.867188 -5.810547 51.131824 22.246094 2.138672 -0.283203 -17.841799 -0.546875 -0.312501 -10.849609 -0.683594 -22.636719 5.966797 4.716797 -22.987478 -0.732422 6.757813 0.252757 -81.425781 -36.621094 51.371128 -82.919922 -2.666016 -25.195311 11.289063 -3.095703 -0.615234 -6.337891 -0.615234 -0.087891 68.740234 35.292969 6.142578 98.398438 3.388672 -45.410152 -18.203125 4.423829 -1.494141 -21.011145 17.260021 12.588606 50.189831 -0.745899 -2.697792 -27.601250 8.774736 -0.142060 -39.321033 -21.245602 -13.240083 46.316032 0.156246 2.603910 -4.340189 -3.100050 4.994766 
-5.150579 44.088840 -74.329079 3.505859 -5.800781 52.030262 22.080078 1.738281 -0.781250 -18.544924 -1.074219 -0.693362 -10.478517 0.693359 -22.949219 5.966797 4.365234 -23.163319 -0.556641 6.943371 0.233194 -82.011719 -38.935543 48.554684 -86.845703 -2.910156 -27.021482 10.761719 -2.070312 -0.410156 -7.558594 -1.162109 0.009766 69.072266 38.378906 8.521688 100.751953 3.378906 -42.070316 -12.226563 5.439453 -1.171875 -20.845110 18.519350 12.651445 50.538731 -0.560514 -3.001213 -27.818638 7.925888 -0.932289 -39.507755 -21.588308 -13.807043 48.605598 -0.195233 2.897958 -4.632593 -2.450479 4.684527 
-5.178442 43.866409 -73.722847 3.164063 -6.162052 52.889835 22.080078 1.347656 -1.279067 -19.248047 -1.591797 -1.064724 -10.644531 2.431641 -23.300781 5.966797 4.189453 -23.163347 -0.048828 7.294922 0.341797 -84.082031 -40.986328 43.701172 -92.353516 -2.978516 -29.921368 14.101563 -2.392578 -0.605469 -8.613282 -1.679688 -0.087891 69.824219 41.660160 11.904298 101.914063 3.388672 -38.311123 -8.320312 4.316406 -0.604732 -21.052658 20.133715 12.614171 51.053249 -0.578033 -2.841980 -27.661364 6.735897 -1.571916 -40.732414 -22.285318 -14.459338 51.956127 -0.189457 2.687864 -3.729372 -0.337793 4.797550 
-5.250768 43.563835 -72.975174 2.636719 -6.503856 53.768639 22.089842 0.947266 -1.767578 -19.960939 -2.294922 -1.269531 -10.634765 3.984375 -23.622370 6.318359 4.375000 -23.143787 0.478516 7.822255 0.272109 -86.835938 -42.929688 36.328125 -99.931641 -2.890625 -33.212894 19.238281 -3.925782 -1.397153 -9.316406 -2.060547 0.000351 71.318359 44.746094 16.074219 102.070313 3.056641 -32.842319 -6.894531 1.357422 -0.351562 -21.189135 21.978785 12.882057 51.939087 -0.257856 -3.097961 -27.552998 5.087821 -2.519670 -42.075630 -23.111166 -15.150874 55.452099 -0.185411 3.030336 -2.574975 2.556870 4.984681 
-5.384390 43.171024 -72.126015 2.275390 -6.865235 54.462891 22.451174 0.722656 -2.216674 -20.488279 -3.173828 -1.641166 -11.474609 5.507813 -24.306643 7.021484 4.550781 -23.290241 0.810547 8.173828 0.390625 -88.945313 -46.044922 27.951956 -107.773438 -3.173828 -35.478519 23.486326 -4.384766 -1.943359 -9.843751 -2.226563 -0.048828 72.988281 48.027344 20.339291 101.425781 2.988281 -27.520039 -4.628906 -3.876953 0.126953 -21.773659 24.554092 13.235637 52.993256 -0.257886 -3.139987 -28.378662 3.395132 -3.437948 -43.931206 -24.244028 -15.395281 58.437016 -0.361352 3.073901 -1.601747 6.652987 4.888340 
-5.543029 42.671627 -71.177849 1.933594 -7.392579 54.988976 22.978516 0.615234 -2.431640 -21.015625 -3.691406 -1.836566 -12.500000 5.996094 -24.707031 7.724609 4.902344 -23.603518 1.162109 8.183594 0.340407 -90.019531 -49.873047 20.637064 -112.939453 -3.095703 -34.188927 25.917967 -3.466797 -1.582031 -10.185546 -2.607422 0.049272 74.277344 51.669922 23.679537 100.615234 2.851563 -25.059078 -0.146484 -8.105469 -0.341797 -22.467062 27.483196 13.421345 54.551571 -0.268094 -3.560881 -28.758177 2.046588 -4.182168 -45.621414 -25.416634 -15.501381 59.658855 -0.536805 3.206521 -1.974018 7.984694 5.228277 
-5.695504 42.064575 -70.167091 1.757813 -7.919922 55.692013 23.505857 0.449219 -2.490235 -21.191406 -4.394531 -1.835938 -13.486329 6.279297 -25.419922 8.251954 5.253906 -24.110432 1.699219 8.007813 0.263672 -89.462891 -54.228516 14.425672 -114.248047 -3.105469 -32.421875 27.832031 -2.783203 -1.514146 -10.712891 -2.783203 0.000474 74.599609 55.585941 25.644533 100.566406 2.646484 -22.695765 3.593750 -10.458985 -1.202945 -23.512695 30.111305 13.364887 56.323883 -0.092380 -3.395920 -29.413670 0.313289 -5.181049 -47.368690 -27.339470 -15.127208 58.427216 -0.369670 3.069017 -2.714422 6.809897 5.202888 
-5.794386 41.363739 -69.086494 1.933594 -8.271485 56.219296 24.033203 0.449219 -2.490158 -21.025391 -5.097656 -1.836805 -14.667968 6.230469 -25.936436 8.427734 5.439453 -24.452196 2.207031 7.841797 0.369761 -88.232422 -56.953125 10.371094 -113.457031 -3.095703 -33.954552 29.296877 -4.101563 -2.373744 -11.591797 -3.164063 0.059133 73.164063 59.238285 26.238861 100.761719 2.480469 -16.953125 5.097656 -11.621094 -1.494141 -24.401320 32.766720 13.986707 58.252628 0.092739 -3.208613 -29.437511 -1.237758 -6.297165 -49.036491 -29.524820 -14.458172 54.741550 -0.517544 2.998642 -2.203202 3.576532 5.200269 
